Coordinates
version=1
nRows=40
nColumns=30
inDegrees=yes

Units are S.I. units (second, meters, Newtons, ...)
Angles are in degrees.

endheader
time	floatyaw	floatroll	floatpitch	floatx	floaty	floatz	pro_sup_l	deviation_l	flexion_l	cmc_flexion_l	cmc_abduction_l	mp_flexion_l	ip_flexion_l	2mcp_flexion_l	2mcp_abduction_l	2pm_flexion_l	2md_flexion_l	3mcp_flexion_l	3mcp_abduction_l	3pm_flexion_l	3md_flexion_l	4mcp_flexion_l	4mcp_abduction_l	4pm_flexion_l	4md_flexion_l	5mcp_flexion_l	5mcp_abduction_l	5pm_flexion_l	5md_flexion_l
-0.995000	-2.172711	-3.701800	97.553456	-0.100488	-0.188277	-0.033820	85.953482	2.495857	-1.337193	12.706236	7.792294	-22.480863	-34.722536	39.087821	10.471648	47.242085	32.833402	23.075146	5.526750	46.011618	32.130153	11.933788	-4.694405	61.414448	42.366019	5.768078	-11.011203	61.572850	42.485986
-0.985000	-2.172711	-3.701800	97.553456	-0.100481	-0.188274	-0.033792	85.967311	2.494004	-1.348237	12.671708	7.775625	-22.506167	-34.738981	39.111742	10.469500	47.271608	32.844446	23.081238	5.524572	46.040531	32.146590	11.947983	-4.699638	61.434060	42.376318	5.781505	-10.979326	61.582142	42.468985
-0.975000	-2.172711	-3.701800	97.553456	-0.100473	-0.188265	-0.033761	85.983434	2.490647	-1.355612	12.636516	7.763573	-22.536726	-34.760322	39.137432	10.468702	47.303022	32.859045	23.082732	5.525944	46.075959	32.167013	11.963926	-4.708212	61.459392	42.389549	5.794406	-10.945564	61.581266	42.445830
-0.965000	-2.172711	-3.701800	97.553456	-0.100464	-0.188251	-0.033726	85.997527	2.483393	-1.358408	12.600336	7.756350	-22.570713	-34.785498	39.165516	10.467265	47.330169	32.872160	23.083659	5.529412	46.108313	32.186112	11.981519	-4.719798	61.484467	42.402708	5.800618	-10.908758	61.566197	42.420482
-0.955000	-2.172711	-3.701800	97.553456	-0.100453	-0.188235	-0.033689	86.005797	2.471063	-1.357615	12.564359	7.753503	-22.604355	-34.811951	39.196300	10.463999	47.349938	32.880745	23.087308	5.533211	46.130732	32.200102	11.999667	-4.732467	61.504969	42.413742	5.800442	-10.870783	61.541047	42.398112
-0.945000	-2.172711	-3.701800	97.553456	-0.100442	-0.188221	-0.033652	86.006378	2.454228	-1.355668	12.531161	7.753587	-22.633424	-34.836599	39.229445	10.458590	47.363548	32.884856	23.095407	5.535800	46.141901	32.208209	12.017000	-4.743670	61.519935	42.422138	5.799738	-10.835913	61.516373	42.383026
-0.935000	-2.172711	-3.701800	97.553456	-0.100430	-0.188212	-0.033618	85.999938	2.434874	-1.355346	12.503566	7.753693	-22.655037	-34.857046	39.263675	10.451552	47.374960	32.886868	23.107859	5.536305	46.145553	32.212431	12.032531	-4.751462	61.530886	42.428492	5.805126	-10.809034	61.503463	42.376758
-0.925000	-2.172711	-3.701800	97.553456	-0.100419	-0.188212	-0.033588	85.989339	2.415426	-1.358630	12.482870	7.749336	-22.668656	-34.872141	39.296894	10.444176	47.387817	32.889601	23.123086	5.534794	46.147305	32.215907	12.045842	-4.755258	61.539625	42.433661	5.818953	-10.793894	61.508148	42.377405
-0.915000	-2.172711	-3.701800	97.553456	-0.100409	-0.188220	-0.033564	85.978831	2.397871	-1.366106	12.467472	7.735282	-22.675810	-34.881735	39.327073	10.438356	47.403208	32.894670	23.138912	5.532323	46.151159	32.221030	12.056978	-4.755854	61.546844	42.438284	5.837589	-10.791917	61.528085	42.380707
-0.905000	-2.172711	-3.701800	97.553456	-0.100402	-0.188232	-0.033543	85.973176	2.383502	-1.377127	12.452993	7.707413	-22.679085	-34.886234	39.353531	10.436064	47.419950	32.902075	23.153563	5.530651	46.157993	32.228507	12.066453	-4.754903	61.552613	42.442943	5.854326	-10.801464	61.554947	42.382240
-0.895000	-2.172711	-3.701800	97.553456	-0.100394	-0.188246	-0.033523	85.976472	2.373092	-1.390507	12.434062	7.665022	-22.681241	-34.886636	39.377677	10.438391	47.437143	32.911094	23.166244	5.531654	46.166841	32.237877	12.075416	-4.754234	61.558049	42.448584	5.865378	-10.817606	61.579699	42.379407
-0.885000	-2.172711	-3.701800	97.553456	-0.100384	-0.188257	-0.033502	85.990396	2.366895	-1.405288	12.406869	7.612241	-22.684806	-34.884944	39.402433	10.444648	47.456796	32.921546	23.177098	5.536549	46.177659	32.248900	12.085572	-4.755236	61.566357	42.456674	5.875500	-10.832888	61.597476	42.372171
-0.875000	-2.172711	-3.701800	97.553456	-0.100367	-0.188264	-0.033479	86.012444	2.364224	-1.421091	12.370858	7.557446	-22.691946	-34.884305	39.430528	10.452308	47.483887	32.934170	23.186836	5.545214	46.193101	32.262565	12.098499	-4.758426	61.582061	42.468854	5.899356	-10.839472	61.609432	42.362390
-0.865000	-2.172711	-3.701800	97.553456	-0.100343	-0.188270	-0.033454	86.035562	2.363102	-1.437866	12.328405	7.510542	-22.704354	-34.888342	39.462778	10.458130	47.523088	32.949633	23.196423	5.555987	46.217518	32.280698	12.114619	-4.763279	61.608524	42.486216	5.956351	-10.832208	61.621101	42.352462
-0.855000	-2.172711	-3.701800	97.553456	-0.100310	-0.188277	-0.033430	86.050112	2.360639	-1.455248	12.282657	7.479311	-22.723061	-34.899836	39.497576	10.459822	47.574155	32.966937	23.206914	5.566101	46.253541	32.304309	12.132583	-4.768463	61.645074	42.508529	6.060301	-10.811291	61.638662	42.344167
-0.845000	-2.172711	-3.701800	97.553456	-0.100274	-0.188290	-0.033408	86.047734	2.354132	-1.471892	12.235210	7.466635	-22.748156	-34.919420	39.531827	10.457215	47.629490	32.982684	23.219190	5.572693	46.298704	32.331931	12.149611	-4.772529	61.685536	42.533851	6.209550	-10.783089	61.665249	42.338118
-0.835000	-2.172711	-3.701800	97.553456	-0.100239	-0.188308	-0.033391	86.025286	2.342275	-1.485278	12.185461	7.469881	-22.778460	-34.945053	39.562522	10.452302	47.676204	32.992098	23.233363	5.574021	46.344898	32.359427	12.162583	-4.774782	61.719777	42.559046	6.384537	-10.758437	61.699030	42.333701
-0.825000	-2.172711	-3.701800	97.553456	-0.100210	-0.188326	-0.033379	85.986817	2.325794	-1.492385	12.132134	7.482398	-22.811356	-34.972655	39.587842	10.448196	47.702107	32.991438	23.248172	5.570343	46.381689	32.381759	12.169252	-4.775842	61.738378	42.581309	6.555521	-10.748652	61.733919	42.329304
-0.815000	-2.172711	-3.701800	97.553456	-0.100188	-0.188339	-0.033371	85.942461	2.307277	-1.491247	12.075778	7.496169	-22.843078	-34.997641	39.607419	10.447518	47.702413	32.980457	23.261221	5.563813	46.401809	32.395738	12.169179	-4.777365	61.738179	42.599826	6.695772	-10.760496	61.762587	42.322905
-0.805000	-2.172711	-3.701800	97.553456	-0.100173	-0.188343	-0.033365	85.904570	2.290319	-1.482653	12.020199	7.504391	-22.869609	-35.016592	39.622024	10.451006	47.683125	32.963346	23.270367	5.557266	46.405494	32.401983	12.164240	-4.780937	61.725089	42.616303	6.791750	-10.792420	61.780337	42.313066
-0.795000	-2.172711	-3.701800	97.553456	-0.100159	-0.188339	-0.033359	85.882795	2.278296	-1.470785	11.971602	7.503092	-22.887992	-35.028352	39.632913	10.457213	47.658784	32.947366	23.275411	5.552568	46.400802	32.404778	12.158461	-4.786851	61.711800	42.633790	6.845306	-10.834623	61.787662	42.299914
-0.785000	-2.172711	-3.701800	97.553456	-0.100144	-0.188332	-0.033352	85.880545	2.273269	-1.461984	11.935923	7.491305	-22.897507	-35.034158	39.640951	10.463663	47.645704	32.939782	23.278546	5.549756	46.399539	32.409824	12.156838	-4.793688	61.711490	42.654620	6.869366	-10.873660	61.790001	42.285401
-0.775000	-2.172711	-3.701800	97.553456	-0.100125	-0.188329	-0.033344	85.894753	2.275519	-1.461988	11.916214	7.469933	-22.899978	-35.036873	39.645851	10.468813	47.654695	32.944818	23.282845	5.547609	46.411153	32.421288	12.163306	-4.799063	61.731388	42.678928	6.881588	-10.899218	61.794975	42.272506
-0.765000	-2.172711	-3.701800	97.553456	-0.100103	-0.188334	-0.033338	85.918856	2.283958	-1.473138	11.911689	7.440112	-22.898874	-35.039678	39.646135	10.473470	47.687426	32.962390	23.289761	5.545098	46.438220	32.439896	12.178783	-4.801037	61.770098	42.704666	6.898993	-10.908926	61.808920	42.263778
-0.755000	-2.172711	-3.701800	97.553456	-0.100080	-0.188349	-0.033335	85.946751	2.296999	-1.493227	11.918640	7.402192	-22.897707	-35.044872	39.640116	10.480591	47.737789	32.989052	23.297683	5.542463	46.476046	32.463094	12.200550	-4.799302	61.819777	42.728919	6.933982	-10.908364	61.834522	42.260054
-0.745000	-2.172711	-3.701800	97.553456	-0.100057	-0.188368	-0.033337	85.975078	2.313106	-1.516756	11.932083	7.356098	-22.898701	-35.053324	39.627466	10.493503	47.796378	33.020130	23.302864	5.541123	46.516246	32.486923	12.223600	-4.795511	61.871023	42.749500	6.991341	-10.906656	61.870243	42.260022
-0.735000	-2.172711	-3.701800	97.553456	-0.100035	-0.188387	-0.033342	86.002867	2.330690	-1.537854	11.947004	7.302821	-22.902384	-35.064659	39.610483	10.513588	47.854904	33.051589	23.302143	5.542604	46.551813	32.508327	12.243391	-4.792642	61.917091	42.765769	7.066812	-10.910704	61.911371	42.260887
-0.725000	-2.172711	-3.701800	97.553456	-0.100015	-0.188399	-0.033347	86.029751	2.347812	-1.553098	11.958956	7.245805	-22.908037	-35.077836	39.594231	10.538832	47.908389	33.080767	23.295527	5.547326	46.580618	32.526545	12.258331	-4.793663	61.955369	42.778358	7.148563	-10.921540	61.952190	42.259800
-0.715000	-2.172711	-3.701800	97.553456	-0.099993	-0.188404	-0.033350	86.054728	2.362404	-1.562681	11.964515	7.190732	-22.914507	-35.091690	39.585223	10.564272	47.954867	33.106102	23.286852	5.554020	46.605570	32.542924	12.270398	-4.800134	61.986222	42.788256	7.221830	-10.934461	61.988317	42.255234
-0.705000	-2.172711	-3.701800	97.553456	-0.099971	-0.188404	-0.033349	86.076372	2.373094	-1.569535	11.961920	7.143108	-22.920864	-35.105262	39.589023	10.584384	47.993606	33.126482	23.282191	5.560112	46.631647	32.559436	12.283729	-4.811522	62.010804	42.795969	7.274833	-10.942076	62.018038	42.247514
-0.695000	-2.172711	-3.701800	97.553456	-0.099948	-0.188402	-0.033343	86.093811	2.379979	-1.577317	11.951567	7.104713	-22.926685	-35.117902	39.607909	10.596087	48.023278	33.140788	23.287145	5.562847	46.661752	32.576832	12.302430	-4.825645	62.029457	42.801242	7.302786	-10.937912	62.041874	42.238252
-0.685000	-2.172711	-3.701800	97.553456	-0.099927	-0.188401	-0.033336	86.107172	2.384652	-1.588516	11.935778	7.071317	-22.931962	-35.129202	39.639892	10.600341	48.041385	33.147973	23.304583	5.560582	46.693986	32.593589	12.328996	-4.839933	62.041478	42.803405	7.308066	-10.918637	62.060878	42.229222
-0.675000	-2.172711	-3.701800	97.553456	-0.099909	-0.188402	-0.033330	86.117004	2.389451	-1.603526	11.917781	7.033838	-22.936804	-35.138822	39.679626	10.601189	48.045493	33.147664	23.333725	5.553578	46.722176	32.606433	12.363690	-4.852699	62.046042	42.802041	7.297405	-10.884505	62.075014	42.221385
-0.665000	-2.172711	-3.701800	97.553456	-0.099896	-0.188406	-0.033330	86.123239	2.396492	-1.620757	11.900476	6.982890	-22.941205	-35.146351	39.720497	10.603016	48.035435	33.140866	23.370537	5.543816	46.739413	32.612223	12.404467	-4.863634	62.043455	42.797579	7.278776	-10.838828	62.082857	42.214555
-0.655000	-2.172711	-3.701800	97.553456	-0.099889	-0.188413	-0.033340	86.124646	2.407040	-1.637431	11.885586	6.914129	-22.945014	-35.151365	39.756567	10.608022	48.014492	33.130039	23.409029	5.533924	46.742274	32.609990	12.447173	-4.873367	62.035849	42.791456	7.259920	-10.787268	62.082727	42.207698
-0.645000	-2.172711	-3.701800	97.553456	-0.099887	-0.188421	-0.033361	86.119235	2.421349	-1.650664	11.873396	6.831098	-22.948065	-35.153629	39.783637	10.615427	47.988152	33.118150	23.443003	5.525845	46.732809	32.601693	12.486314	-4.882540	62.026695	42.785685	7.248204	-10.736960	62.074350	42.199605
-0.635000	-2.172711	-3.701800	97.553456	-0.099890	-0.188431	-0.033396	86.105439	2.438895	-1.658586	11.863047	6.744012	-22.950187	-35.153238	39.799581	10.622494	47.961264	33.107217	23.467890	5.520078	46.717124	32.591165	12.516729	-4.891175	62.019282	42.781995	7.250169	-10.694999	62.059853	42.189588
-0.625000	-2.172711	-3.701800	97.553456	-0.099897	-0.188443	-0.033442	86.083573	2.458900	-1.661213	11.853353	6.665504	-22.950963	-35.150523	39.804380	10.626322	47.936025	33.097507	23.482193	5.515889	46.701902	32.582056	12.535819	-4.898717	62.015183	42.781024	7.269790	-10.666280	62.043554	42.177866
-0.615000	-2.172711	-3.701800	97.553456	-0.099906	-0.188454	-0.033495	86.056762	2.480942	-1.660741	11.843868	6.605662	-22.949450	-35.145813	39.800016	10.625182	47.912455	33.088053	23.488076	5.512202	46.691452	32.576199	12.545131	-4.904587	62.013870	42.782127	7.306335	-10.651603	62.030670	42.165470
-0.605000	-2.172711	-3.701800	97.553456	-0.099916	-0.188466	-0.033550	86.030443	2.505208	-1.660963	11.835612	6.568386	-22.944305	-35.139339	39.790155	10.618813	47.890621	33.078024	23.490732	5.508485	46.686909	32.573303	12.550025	-4.908722	62.013716	42.783902	7.353687	-10.647353	62.025434	42.153695
